<svg xmlns="http://www.w3.org/2000/svg" width="104.857" height="24.816" viewBox="0 0 104.857 24.816"><defs><style>.a{stroke:rgba(0,0,0,0);stroke-miterlimit:10;}.b{fill:#de1b23;}</style></defs><g transform="translate(0 0.5)"><path class="a" d="M10.5,23.816a10.476,10.476,0,0,1-2.34-.256,9.277,9.277,0,0,1-2.125-.769,11.919,11.919,0,0,1-1.877-1.183,11.436,11.436,0,0,1-1.6-1.5c-.248-.281-.484-.578-.7-.881H3.911a9.443,9.443,0,0,0,1.315,1.217,9.66,9.66,0,0,0,1.533.953,8.028,8.028,0,0,0,1.8.645,9.152,9.152,0,0,0,3.982-.008,7.638,7.638,0,0,0,1.807-.67,9.513,9.513,0,0,0,1.58-1.038A9.362,9.362,0,0,0,17.261,19a10.9,10.9,0,0,0,1.071-1.567,11.6,11.6,0,0,0,1.294-3.626,11.039,11.039,0,0,0,.165-1.9,11.289,11.289,0,0,0-.174-1.981A11.083,11.083,0,0,0,19.1,8.021a11.275,11.275,0,0,0-.831-1.761,10.475,10.475,0,0,0-1.1-1.546,9.566,9.566,0,0,0-2.927-2.3,7.769,7.769,0,0,0-1.77-.645,8.571,8.571,0,0,0-1.935-.215,8.917,8.917,0,0,0-2.018.223,7.776,7.776,0,0,0-1.819.67A9.658,9.658,0,0,0,5.1,3.486,9.478,9.478,0,0,0,3.749,4.813,10.768,10.768,0,0,0,2.665,6.38a11.218,11.218,0,0,0-.8,1.757c-.038.107-.075.215-.11.322H0c.1-.353.223-.706.358-1.05a13.12,13.12,0,0,1,1-2.026A12.3,12.3,0,0,1,2.674,3.605,11.113,11.113,0,0,1,4.282,2.121,11.319,11.319,0,0,1,6.163.976a9.68,9.68,0,0,1,2.1-.732,10.663,10.663,0,0,1,4.61.017,9.325,9.325,0,0,1,2.138.781,11.66,11.66,0,0,1,1.885,1.2,11.127,11.127,0,0,1,1.588,1.526,12.493,12.493,0,0,1,1.278,1.8,13.008,13.008,0,0,1,.955,2.022,12.832,12.832,0,0,1,.6,2.146,12.033,12.033,0,0,1,.2,2.171,12.731,12.731,0,0,1-.211,2.324,12.151,12.151,0,0,1-.633,2.208,12.953,12.953,0,0,1-1,2.022,12.04,12.04,0,0,1-1.315,1.766A11.179,11.179,0,0,1,16.744,21.7a11.488,11.488,0,0,1-1.881,1.141,9.681,9.681,0,0,1-2.1.732A10.408,10.408,0,0,1,10.5,23.816Zm58.449-.165H67.159l-3.275-7.74H52.671L49.4,23.651H47.577L57.567.165h1.455l9.923,23.485ZM58.294,2.216l-5.226,12.3H63.421ZM89.487,23.651H87.932L71.724,3.341v20.31H70.037V.165h1.29L87.8,20.839V.165h1.687V23.651Zm-42.968,0H44.832V3.341L35.57,19.185H34.511L25.249,3.341v20.31H23.562V.165h1.687l9.791,16.8L44.832.165h1.687V23.651Z" transform="translate(14.871 0)"/><path class="b" d="M-85.434-63.207a1.216,1.216,0,0,0-.282-.063.751.751,0,0,0-.282.017.469.469,0,0,0-.213.121.3.3,0,0,0-.086.224.134.134,0,0,0,.109.144.473.473,0,0,0,.259-.017.945.945,0,0,0,.293-.155A.58.58,0,0,0-85.434-63.207ZM-82.261-73.8a1.009,1.009,0,0,0,.224-.437,5.315,5.315,0,0,0,.138-.615,4.16,4.16,0,0,0,.057-.575,1.283,1.283,0,0,0-.017-.328,1.349,1.349,0,0,0-.092.276q-.057.218-.109.512t-.109.609Q-82.226-74.038-82.261-73.8Zm6.945,10.762a.933.933,0,0,1,.3.385,1.187,1.187,0,0,1,.092.454,1,1,0,0,1-.1.443.951.951,0,0,1-.287.351,2.99,2.99,0,0,1-1.248.356,7.351,7.351,0,0,1-1.523-.046,13.9,13.9,0,0,1-1.661-.322q-.857-.218-1.656-.471t-1.5-.506q-.7-.253-1.207-.414a1.461,1.461,0,0,1-.454.489,1.906,1.906,0,0,1-.6.27,2.114,2.114,0,0,1-.638.063,1.634,1.634,0,0,1-.581-.132,1.12,1.12,0,0,1-.425-.322.764.764,0,0,1-.167-.494.735.735,0,0,1,.2-.535,1.148,1.148,0,0,1,.483-.293,2.06,2.06,0,0,1,.592-.1,2.057,2.057,0,0,1,.535.052,9.086,9.086,0,0,0,.3-1.1q.144-.655.27-1.414t.23-1.575q.1-.816.19-1.6t.155-1.472q.069-.69.1-1.207a1.656,1.656,0,0,1-.586.1.3.3,0,0,1-.241-.092.306.306,0,0,1-.08-.207.306.306,0,0,1,.08-.207.289.289,0,0,1,.23-.092.822.822,0,0,0,.3-.063,2.253,2.253,0,0,0,.333-.167,12.81,12.81,0,0,1,.155-1.3,6.864,6.864,0,0,1,.287-1.133,3,3,0,0,1,.425-.822.884.884,0,0,1,.592-.368,1.091,1.091,0,0,1,.822.2.915.915,0,0,1,.339.776,4.371,4.371,0,0,1-.075.788,4.512,4.512,0,0,1-.218.788,3.624,3.624,0,0,1-.345.69,1.834,1.834,0,0,1-.454.494q-.069.644-.144,1.42t-.161,1.621q-.086.845-.2,1.713t-.253,1.69q-.144.822-.322,1.569a11.443,11.443,0,0,1-.4,1.334q.425.126,1.161.31t1.6.362q.868.178,1.794.3a13.508,13.508,0,0,0,1.725.132,5.259,5.259,0,0,0,1.4-.155A1.292,1.292,0,0,0-75.316-63.034Zm-4.7-.793a2.45,2.45,0,0,1-.316-.776,4.468,4.468,0,0,1-.109-.874,5.5,5.5,0,0,1,.04-.845,4.247,4.247,0,0,1,.144-.7l.138-.46a1.823,1.823,0,0,1,.2-.811,1.924,1.924,0,0,1,.494-.609,2.161,2.161,0,0,1,.684-.374,2.213,2.213,0,0,1,.77-.115,1.834,1.834,0,0,1,.943.27,1.94,1.94,0,0,1,.615.644,2.786,2.786,0,0,1,.333.908A4.745,4.745,0,0,1-76-66.524a6.245,6.245,0,0,1-.126,1.064,4.9,4.9,0,0,1-.293.954,1.579,1.579,0,0,0,.862-.207,3.175,3.175,0,0,0,.759-.592,4.5,4.5,0,0,0,.6-.782,4.339,4.339,0,0,0,.379-.776.338.338,0,0,1,.213-.161A.324.324,0,0,1-73.39-67a.287.287,0,0,1,.138.167.289.289,0,0,1-.029.241,6.747,6.747,0,0,1-.586,1.029,4.618,4.618,0,0,1-.776.874,3.109,3.109,0,0,1-.954.569,2.416,2.416,0,0,1-1.133.126,2.386,2.386,0,0,1-.742.621,2.377,2.377,0,0,1-.914.287,1.96,1.96,0,0,1-.914-.126A1.458,1.458,0,0,1-80.019-63.828Zm2.989-.828a3.762,3.762,0,0,0,.236-.719,5.78,5.78,0,0,0,.132-.88,5.268,5.268,0,0,0-.012-.92A3.285,3.285,0,0,0-76.857-68a1.626,1.626,0,0,0-.379-.6.911.911,0,0,0-.6-.259.677.677,0,0,0-.431.121,1.214,1.214,0,0,0-.322.333,1.861,1.861,0,0,0-.213.448,2.3,2.3,0,0,0-.1.454,1.978,1.978,0,0,0,.092.834,3.316,3.316,0,0,0,.4.822,3.5,3.5,0,0,0,.621.707A2.9,2.9,0,0,0-77.029-64.655Zm-.356.517a3.6,3.6,0,0,1-.937-.523,4.134,4.134,0,0,1-.776-.776,2.465,2.465,0,0,0,.063.811,1.289,1.289,0,0,0,.322.609.757.757,0,0,0,.558.224A1.317,1.317,0,0,0-77.386-64.138Zm8.117-1.759a7.227,7.227,0,0,1-.535,1,6.983,6.983,0,0,1-.753.995,3.969,3.969,0,0,1-.857.724,1.191,1.191,0,0,1-.834.2,1.035,1.035,0,0,1-.678-.437,3.411,3.411,0,0,1-.483-.937,7.677,7.677,0,0,1-.31-1.213,11.825,11.825,0,0,1-.155-1.271,9.335,9.335,0,0,1-.011-1.127,3.321,3.321,0,0,1,.109-.765,1.041,1.041,0,0,1,.385-.6.861.861,0,0,1,.54-.155,1.026,1.026,0,0,1,.535.2,1.023,1.023,0,0,1,.368.466q-.115-.069-.2.241a4.662,4.662,0,0,0-.115.828q-.034.517-.017,1.15a10.136,10.136,0,0,0,.1,1.184,4.468,4.468,0,0,0,.23.943q.149.391.379.437a.584.584,0,0,0,.483-.19,3.662,3.662,0,0,0,.546-.6,6.419,6.419,0,0,0,.5-.788,7.518,7.518,0,0,0,.368-.77,1.631,1.631,0,0,1-.236-.535,4.456,4.456,0,0,1-.138-.765,5.626,5.626,0,0,1-.017-.845,2.864,2.864,0,0,1,.144-.782,1.516,1.516,0,0,1,.339-.575.752.752,0,0,1,.563-.224.532.532,0,0,1,.494.247,1.26,1.26,0,0,1,.161.621,3.764,3.764,0,0,1-.075.822q-.086.448-.2.862t-.23.73q-.115.316-.161.42a1.45,1.45,0,0,0,.247.259.791.791,0,0,0,.448.184,1.081,1.081,0,0,0,.609-.149,2.28,2.28,0,0,0,.73-.753.292.292,0,0,1,.2-.132.328.328,0,0,1,.213.034.326.326,0,0,1,.138.149.234.234,0,0,1-.011.213,3.55,3.55,0,0,1-.862.88,1.748,1.748,0,0,1-.776.3,1.229,1.229,0,0,1-.661-.109A1.755,1.755,0,0,1-69.268-65.9Zm-.115-1.092q.023,0,.092-.184t.144-.448q.075-.264.138-.575a4.3,4.3,0,0,0,.08-.575,1.429,1.429,0,0,0-.029-.443q-.046-.178-.184-.178a.275.275,0,0,0-.241.149,1.155,1.155,0,0,0-.138.379,2.923,2.923,0,0,0-.052.512,5.1,5.1,0,0,0,.017.546,4.058,4.058,0,0,0,.069.483A1.441,1.441,0,0,0-69.383-66.989Zm4.519,3.15a2.156,2.156,0,0,0,1.092-.322,5.464,5.464,0,0,0,1.041-.793,8.074,8.074,0,0,0,.874-.989,9.348,9.348,0,0,0,.615-.92.323.323,0,0,1,.207-.167.334.334,0,0,1,.23.023.283.283,0,0,1,.144.161.286.286,0,0,1-.04.247,11.368,11.368,0,0,1-.822,1.242A8.009,8.009,0,0,1-62.588-64.2a5.617,5.617,0,0,1-1.265.857,3.168,3.168,0,0,1-1.414.333,2.056,2.056,0,0,1-1.115-.276,1.793,1.793,0,0,1-.661-.724,2.6,2.6,0,0,1-.259-1.018,4.259,4.259,0,0,1,.1-1.173,5.26,5.26,0,0,1,.408-1.173,4.578,4.578,0,0,1,.667-1.018,3.387,3.387,0,0,1,.874-.724,2.052,2.052,0,0,1,1.035-.276,1.3,1.3,0,0,1,.592.161,1.628,1.628,0,0,1,.46.374,1.361,1.361,0,0,1,.27.494,1.2,1.2,0,0,1,.034.546.96.96,0,0,1-.4.609,2.608,2.608,0,0,1-.759.379,4.076,4.076,0,0,1-.885.178,4.184,4.184,0,0,1-.788.006,4.525,4.525,0,0,0-.287.9,2.573,2.573,0,0,0-.04.914,1.26,1.26,0,0,0,.333.707A1.09,1.09,0,0,0-64.865-63.839Zm-.644-3.231a2.74,2.74,0,0,0,.529-.006,4.463,4.463,0,0,0,.7-.115,2.261,2.261,0,0,0,.621-.247.535.535,0,0,0,.293-.414.712.712,0,0,0-.057-.351.46.46,0,0,0-.2-.213.639.639,0,0,0-.287-.075.944.944,0,0,0-.333.052,1.235,1.235,0,0,0-.414.23,2.451,2.451,0,0,0-.356.362,3.956,3.956,0,0,0-.287.408Q-65.428-67.231-65.509-67.07Z" transform="translate(86.975 79.364)"/></g></svg>